<svg width="40" height="37" viewBox="0 0 40 37" fill="none" xmlns="http://www.w3.org/2000/svg">
<path fill-rule="evenodd" clip-rule="evenodd" d="M11.7227 9.25001C12.2126 5.88176 15.8516 3.08334 20 3.08334C24.1484 3.08334 27.7874 5.88176 28.2773 9.25001H33.0783C34.9193 9.25001 36.4116 10.6305 36.4116 12.3333C36.4116 12.4792 36.4005 12.625 36.3781 12.7694L33.521 31.2694C33.2864 32.7884 31.88 33.9167 30.2212 33.9167H9.77882C8.11999 33.9167 6.71358 32.7884 6.47899 31.2694L3.62185 12.7694C3.3615 11.0836 4.62783 9.52182 6.45027 9.281C6.60642 9.26037 6.76395 9.25001 6.92168 9.25001H11.7227ZM15.1202 9.25002H24.8798C24.3731 7.61289 22.33 6.16669 20 6.16669C17.6699 6.16669 15.6268 7.61289 15.1202 9.25002ZM6.92168 12.3333H11.6667V15.4167H15V12.3333H25V15.4167H28.3333V12.3333H33.0783L30.2212 30.8333H9.77882L6.92168 12.3333Z" fill="black" fill-opacity="0.5"/>
<path d="M16.9226 21.735C16.7826 21.845 16.6326 21.86 16.4726 21.78C16.3226 21.7 16.2476 21.575 16.2476 21.405V20.805C16.2476 20.245 16.4726 19.79 16.9226 19.44L18.5276 18.21C18.9776 17.87 19.4876 17.7 20.0576 17.7H20.5076C20.7376 17.7 20.9326 17.785 21.0926 17.955C21.2626 18.125 21.3476 18.325 21.3476 18.555V27.795C21.3476 28.025 21.2626 28.225 21.0926 28.395C20.9326 28.565 20.7376 28.65 20.5076 28.65H20.0576C19.8276 28.65 19.6276 28.565 19.4576 28.395C19.2876 28.225 19.2026 28.025 19.2026 27.795V20.01L19.1876 19.995L19.1726 20.01L16.9226 21.735Z" fill="black" fill-opacity="0.5"/>
</svg>
